<mxfile host="app.diagrams.net" modified="2023-06-14T11:43:06.668Z" agent="Mozilla/5.0 (X11; Ubuntu; Linux x86_64; rv:109.0) Gecko/20100101 Firefox/112.0" version="21.3.8" etag="p8bhiLI8ewc5zKRQhRnH" type="github">
  <diagram name="Page-1" id="6neZmTnCpRNUY8pplZSn">
    <mxGraphModel>
      <root>
        <mxCell id="0" />
        <mxCell id="1" parent="0" />
      </root>
    </mxGraphModel>
  </diagram>
</mxfile>
